<svg width="20" height="18" viewBox="0 0 20 18" fill="none" xmlns="http://www.w3.org/2000/svg">
<path fill-rule="evenodd" clip-rule="evenodd" d="M16.6961 14.2577C17.493 13.4607 17.9407 12.3798 17.9407 11.2527C17.9407 10.1256 17.493 9.04472 16.6961 8.2477L10.1561 1.7077C9.96845 1.52019 9.86298 1.26583 9.86289 1.00056C9.86279 0.735286 9.96808 0.480843 10.1556 0.293203C10.3431 0.105562 10.5975 9.38352e-05 10.8627 6.25837e-08C11.128 -9.371e-05 11.3824 0.105194 11.5701 0.292702L18.1101 6.8327C19.2823 8.00469 19.941 9.59436 19.9412 11.252C19.9414 12.9096 19.2831 14.4994 18.1111 15.6717C16.9391 16.844 15.3494 17.5026 13.6918 17.5028C12.0342 17.503 10.4443 16.8447 9.27209 15.6727L1.31809 7.7177C0.474037 6.87352 -9.37543e-05 5.72861 1.39057e-08 4.53485C9.37821e-05 3.34109 0.474404 2.19625 1.31859 1.3522C2.16277 0.508151 3.30768 0.0340207 4.50144 0.0341144C5.6952 0.0342082 6.84004 0.508518 7.68409 1.3527L15.6371 9.3057C16.1407 9.82436 16.42 10.5203 16.4146 11.2432C16.4092 11.9661 16.1196 12.6579 15.6084 13.169C15.0971 13.6801 14.4053 13.9695 13.6824 13.9747C12.9595 13.9799 12.2636 13.7004 11.7451 13.1967L4.49909 5.9497C4.31145 5.76219 4.20598 5.50783 4.20589 5.24256C4.20579 4.97729 4.31108 4.72284 4.49859 4.5352C4.6861 4.34756 4.94046 4.24209 5.20573 4.242C5.471 4.24191 5.72545 4.34719 5.91309 4.5347L13.1601 11.7817C13.3009 11.9227 13.492 12.0019 13.6912 12.002C13.8905 12.0021 14.0816 11.923 14.2226 11.7822C14.3636 11.6414 14.4428 11.4503 14.4429 11.2511C14.443 11.0518 14.3639 10.8607 14.2231 10.7197L6.27009 2.7667C6.03791 2.53439 5.76225 2.35009 5.45885 2.22432C5.15544 2.09854 4.83024 2.03376 4.5018 2.03367C4.17335 2.03357 3.84811 2.09817 3.54464 2.22378C3.24116 2.34938 2.9654 2.53353 2.73309 2.7657C2.26392 3.23461 2.00024 3.87068 2.00005 4.534C1.99986 5.19731 2.26319 5.83353 2.73209 6.3027L10.6861 14.2567C11.4831 15.0536 12.564 15.5013 13.6911 15.5013C14.8182 15.5013 15.8991 15.0536 16.6961 14.2567V14.2577Z" fill="black"/>
</svg>
