<svg width="10" height="10" viewBox="0 0 10 10" fill="none" xmlns="http://www.w3.org/2000/svg">
<path d="M5 0C7.7615 0 10 2.2385 10 5C10 7.7615 7.7615 10 5 10C2.2385 10 0 7.7615 0 5C0 2.2385 2.2385 0 5 0ZM5 6.5C4.86739 6.5 4.74021 6.55268 4.64645 6.64645C4.55268 6.74021 4.5 6.86739 4.5 7C4.5 7.13261 4.55268 7.25979 4.64645 7.35355C4.74021 7.44732 4.86739 7.5 5 7.5C5.13261 7.5 5.25979 7.44732 5.35355 7.35355C5.44732 7.25979 5.5 7.13261 5.5 7C5.5 6.86739 5.44732 6.74021 5.35355 6.64645C5.25979 6.55268 5.13261 6.5 5 6.5ZM5 2C4.87753 2.00002 4.75933 2.04498 4.66781 2.12636C4.5763 2.20774 4.51783 2.31987 4.5035 2.4415L4.5 2.5V5.5C4.50014 5.62744 4.54894 5.75002 4.63642 5.84268C4.72391 5.93535 4.84348 5.99112 4.9707 5.99859C5.09792 6.00605 5.22319 5.96466 5.32092 5.88287C5.41864 5.80107 5.48145 5.68505 5.4965 5.5585L5.5 5.5V2.5C5.5 2.36739 5.44732 2.24021 5.35355 2.14645C5.25979 2.05268 5.13261 2 5 2Z" fill="#FFD500"/>
</svg>
